<?xml version="1.0" encoding="UTF-8"?>
<!-- Do not edit this file with editors other than draw.io -->
<!DOCTYPE svg PUBLIC "-//W3C//DTD SVG 1.1//EN" "http://www.w3.org/Graphics/SVG/1.1/DTD/svg11.dtd">
<svg xmlns="http://www.w3.org/2000/svg" xmlns:xlink="http://www.w3.org/1999/xlink" version="1.1" width="63px" height="59px" viewBox="-0.5 -0.5 63 59" content="&lt;mxfile host=&quot;app.diagrams.net&quot; modified=&quot;2024-03-05T03:48:49.180Z&quot; agent=&quot;Mozilla/5.0 (Windows NT 10.0; Win64; x64) AppleWebKit/537.36 (KHTML, like Gecko) Chrome/122.0.0.0 Safari/537.36&quot; etag=&quot;975aE8Kv6XNvvaAjZw_0&quot; version=&quot;23.1.7&quot; type=&quot;device&quot; scale=&quot;1&quot; border=&quot;0&quot;&gt;&#10;  &lt;diagram name=&quot;第 1 页&quot; id=&quot;fYyTRO84NndO62G7zEoJ&quot;&gt;&#10;    &lt;mxGraphModel dx=&quot;148&quot; dy=&quot;101&quot; grid=&quot;1&quot; gridSize=&quot;1&quot; guides=&quot;1&quot; tooltips=&quot;1&quot; connect=&quot;1&quot; arrows=&quot;1&quot; fold=&quot;1&quot; page=&quot;1&quot; pageScale=&quot;1&quot; pageWidth=&quot;827&quot; pageHeight=&quot;1169&quot; math=&quot;0&quot; shadow=&quot;0&quot;&gt;&#10;      &lt;root&gt;&#10;        &lt;mxCell id=&quot;0&quot; /&gt;&#10;        &lt;mxCell id=&quot;1&quot; parent=&quot;0&quot; /&gt;&#10;        &lt;mxCell id=&quot;F1OS99g4CkSCNnMDumXk-1&quot; value=&quot;&quot; style=&quot;shape=mxgraph.signs.healthcare.heart_2;html=1;pointerEvents=1;verticalLabelPosition=bottom;verticalAlign=top;align=center;sketch=0;fillColor=#A498CB;strokeColor=none;shadow=1;&quot; vertex=&quot;1&quot; parent=&quot;1&quot;&gt;&#10;          &lt;mxGeometry x=&quot;130&quot; y=&quot;440&quot; width=&quot;59.00000000000001&quot; height=&quot;54.99999999999999&quot; as=&quot;geometry&quot; /&gt;&#10;        &lt;/mxCell&gt;&#10;        &lt;mxCell id=&quot;F1OS99g4CkSCNnMDumXk-9&quot; value=&quot;&quot; style=&quot;endArrow=none;html=1;rounded=0;edgeStyle=orthogonalEdgeStyle;curved=1;strokeWidth=2;shadow=1;strokeColor=#A7BBA9;targetPerimeterSpacing=0;endSize=6;startSize=6;&quot; edge=&quot;1&quot; parent=&quot;1&quot;&gt;&#10;          &lt;mxGeometry width=&quot;50&quot; height=&quot;50&quot; relative=&quot;1&quot; as=&quot;geometry&quot;&gt;&#10;            &lt;mxPoint x=&quot;145.5263157894737&quot; y=&quot;449.2696629213483&quot; as=&quot;sourcePoint&quot; /&gt;&#10;            &lt;mxPoint x=&quot;148.6315789473684&quot; y=&quot;480.1685393258427&quot; as=&quot;targetPoint&quot; /&gt;&#10;            &lt;Array as=&quot;points&quot;&gt;&#10;              &lt;mxPoint x=&quot;145.5263157894737&quot; y=&quot;449.57865168539325&quot; /&gt;&#10;              &lt;mxPoint x=&quot;151.73684210526315&quot; y=&quot;449.57865168539325&quot; /&gt;&#10;              &lt;mxPoint x=&quot;151.73684210526315&quot; y=&quot;467.80898876404495&quot; /&gt;&#10;              &lt;mxPoint x=&quot;148.94210526315788&quot; y=&quot;467.80898876404495&quot; /&gt;&#10;            &lt;/Array&gt;&#10;          &lt;/mxGeometry&gt;&#10;        &lt;/mxCell&gt;&#10;        &lt;mxCell id=&quot;F1OS99g4CkSCNnMDumXk-11&quot; value=&quot;&quot; style=&quot;endArrow=none;html=1;rounded=0;edgeStyle=orthogonalEdgeStyle;curved=1;strokeWidth=2;shadow=1;strokeColor=#FBC451;targetPerimeterSpacing=0;endSize=6;startSize=6;&quot; edge=&quot;1&quot; parent=&quot;1&quot;&gt;&#10;          &lt;mxGeometry width=&quot;50&quot; height=&quot;50&quot; relative=&quot;1&quot; as=&quot;geometry&quot;&gt;&#10;            &lt;mxPoint x=&quot;173.47368421052633&quot; y=&quot;449.2696629213483&quot; as=&quot;sourcePoint&quot; /&gt;&#10;            &lt;mxPoint x=&quot;170.3684210526316&quot; y=&quot;480.1685393258427&quot; as=&quot;targetPoint&quot; /&gt;&#10;            &lt;Array as=&quot;points&quot;&gt;&#10;              &lt;mxPoint x=&quot;173.47368421052633&quot; y=&quot;449.57865168539325&quot; /&gt;&#10;              &lt;mxPoint x=&quot;167.26315789473685&quot; y=&quot;449.57865168539325&quot; /&gt;&#10;              &lt;mxPoint x=&quot;167.26315789473685&quot; y=&quot;473.9887640449438&quot; /&gt;&#10;              &lt;mxPoint x=&quot;170.05789473684212&quot; y=&quot;473.9887640449438&quot; /&gt;&#10;            &lt;/Array&gt;&#10;          &lt;/mxGeometry&gt;&#10;        &lt;/mxCell&gt;&#10;        &lt;mxCell id=&quot;F1OS99g4CkSCNnMDumXk-13&quot; value=&quot;&quot; style=&quot;endArrow=none;html=1;rounded=0;edgeStyle=orthogonalEdgeStyle;curved=1;strokeWidth=2;shadow=1;strokeColor=#F49A71;targetPerimeterSpacing=0;endSize=6;startSize=6;&quot; edge=&quot;1&quot; parent=&quot;1&quot;&gt;&#10;          &lt;mxGeometry width=&quot;50&quot; height=&quot;50&quot; relative=&quot;1&quot; as=&quot;geometry&quot;&gt;&#10;            &lt;mxPoint x=&quot;130&quot; y=&quot;467.3591011235955&quot; as=&quot;sourcePoint&quot; /&gt;&#10;            &lt;mxPoint x=&quot;182.78947368421052&quot; y=&quot;454.9995505617977&quot; as=&quot;targetPoint&quot; /&gt;&#10;            &lt;Array as=&quot;points&quot;&gt;&#10;              &lt;mxPoint x=&quot;148.6315789473684&quot; y=&quot;467.3591011235955&quot; /&gt;&#10;              &lt;mxPoint x=&quot;148.6315789473684&quot; y=&quot;464.2692134831461&quot; /&gt;&#10;              &lt;mxPoint x=&quot;161.05263157894737&quot; y=&quot;464.2692134831461&quot; /&gt;&#10;              &lt;mxPoint x=&quot;161.05263157894737&quot; y=&quot;458.3984269662921&quot; /&gt;&#10;              &lt;mxPoint x=&quot;157.94736842105263&quot; y=&quot;458.3984269662921&quot; /&gt;&#10;              &lt;mxPoint x=&quot;157.94736842105263&quot; y=&quot;464.2692134831461&quot; /&gt;&#10;              &lt;mxPoint x=&quot;182.78947368421052&quot; y=&quot;464.2692134831461&quot; /&gt;&#10;            &lt;/Array&gt;&#10;          &lt;/mxGeometry&gt;&#10;        &lt;/mxCell&gt;&#10;      &lt;/root&gt;&#10;    &lt;/mxGraphModel&gt;&#10;  &lt;/diagram&gt;&#10;&lt;/mxfile&gt;&#10;"><defs/><g><rect x="1" y="0" width="59" height="55" fill="none" stroke="none" pointer-events="all" transform="translate(2,3)" opacity="0.25"/><rect x="1" y="0" width="59" height="55" fill="none" stroke="none" pointer-events="all"/><path d="M 59.92 13.72 C 59.13 6.01 52.6 0 44.66 0 C 38.29 0 32.83 3.87 30.5 9.37 C 28.17 3.87 22.71 0 16.34 0 C 8.4 0 1.87 6.01 1.08 13.72 C 1.02 14.24 1 14.75 1 15.28 C 1 33.85 23.89 42.61 30.5 55 L 30.5 55 C 37.11 42.61 60 33.85 60 15.28 C 60 14.75 59.98 14.24 59.92 13.72 Z" fill="#000000" stroke="none" pointer-events="all" transform="translate(2,3)" opacity="0.25"/><path d="M 59.92 13.72 C 59.13 6.01 52.6 0 44.66 0 C 38.29 0 32.83 3.87 30.5 9.37 C 28.17 3.87 22.71 0 16.34 0 C 8.4 0 1.87 6.01 1.08 13.72 C 1.02 14.24 1 14.75 1 15.28 C 1 33.85 23.89 42.61 30.5 55 L 30.5 55 C 37.11 42.61 60 33.85 60 15.28 C 60 14.75 59.98 14.24 59.92 13.72 Z" fill="#a498cb" stroke="none" pointer-events="all"/><path d="M 16.53 9.27 Q 22.75 9.31 22.75 18.56 Q 22.75 27.81 21.18 27.81 Q 19.61 27.81 19.63 40.17" fill="none" stroke="#000000" stroke-width="2" stroke-miterlimit="10" pointer-events="stroke" transform="translate(2,3)" opacity="0.25"/><path d="M 16.53 9.27 Q 22.75 9.31 22.75 18.56 Q 22.75 27.81 21.18 27.81 Q 19.61 27.81 19.63 40.17" fill="none" stroke="#a7bba9" stroke-width="2" stroke-miterlimit="10" pointer-events="stroke"/><path d="M 44.47 9.27 Q 38.25 9.31 38.25 21.65 Q 38.25 34 39.82 34 Q 41.39 34 41.37 40.17" fill="none" stroke="#000000" stroke-width="2" stroke-miterlimit="10" pointer-events="stroke" transform="translate(2,3)" opacity="0.25"/><path d="M 44.47 9.27 Q 38.25 9.31 38.25 21.65 Q 38.25 34 39.82 34 Q 41.39 34 41.37 40.17" fill="none" stroke="#fbc451" stroke-width="2" stroke-miterlimit="10" pointer-events="stroke"/><path d="M 1 27.36 Q 19.64 27.39 19.64 25.83 Q 19.64 24.28 25.85 24.28 Q 32.06 24.28 32.06 21.33 Q 32.06 18.39 30.5 18.39 Q 28.94 18.39 28.94 21.33 Q 28.94 24.28 41.38 24.28 Q 53.81 24.28 53.79 15" fill="none" stroke="#000000" stroke-width="2" stroke-miterlimit="10" pointer-events="stroke" transform="translate(2,3)" opacity="0.25"/><path d="M 1 27.36 Q 19.64 27.39 19.64 25.83 Q 19.64 24.28 25.85 24.28 Q 32.06 24.28 32.06 21.33 Q 32.06 18.39 30.5 18.39 Q 28.94 18.39 28.94 21.33 Q 28.94 24.28 41.38 24.28 Q 53.81 24.28 53.79 15" fill="none" stroke="#f49a71" stroke-width="2" stroke-miterlimit="10" pointer-events="stroke"/></g></svg>